<svg width="600" height="400" viewBox="0 0 600 400" fill="none" xmlns="http://www.w3.org/2000/svg">
<g clip-path="url(#clip0_2_2)">
<path d="M568 0H32C14.3269 0 0 14.3269 0 32V368C0 385.673 14.3269 400 32 400H568C585.673 400 600 385.673 600 368V32C600 14.3269 585.673 0 568 0Z" fill="#2563EB"/>
<path d="M221.266 359.312C221.266 360.816 220.914 362.112 220.21 363.2C219.538 364.256 218.418 365.232 216.85 366.128C215.794 366.768 214.562 367.248 213.154 367.568C211.746 367.888 210.322 368.048 208.882 368.048C207.41 368.048 205.586 367.568 203.41 366.608C201.842 365.84 200.594 364.928 199.666 363.872C198.77 362.816 198.322 361.664 198.322 360.416C198.322 359.552 198.514 358.928 198.898 358.544C199.282 358.128 199.906 357.92 200.77 357.92C201.218 357.92 201.682 358.112 202.162 358.496C202.642 358.848 202.93 359.2 203.026 359.552C203.474 360.864 204.258 361.872 205.378 362.576C206.498 363.248 207.89 363.584 209.554 363.584C211.474 363.584 213.074 363.232 214.354 362.528C215.666 361.824 216.322 360.88 216.322 359.696C216.322 358.544 215.618 357.52 214.21 356.624C212.802 355.728 211.362 355.104 209.89 354.752C207.778 354.176 205.906 353.488 204.274 352.688C202.578 351.856 201.314 350.832 200.482 349.616C199.65 348.4 199.234 347.12 199.234 345.776C199.234 344.528 199.666 343.264 200.53 341.984C201.394 340.672 202.418 339.728 203.602 339.152C204.242 338.832 205.33 338.496 206.866 338.144C208.434 337.76 209.57 337.568 210.274 337.568C211.202 337.568 212.226 337.68 213.346 337.904C214.466 338.128 215.378 338.448 216.082 338.864C217.49 339.664 218.53 340.384 219.202 341.024C219.874 341.664 220.21 342.464 220.21 343.424C220.21 344 219.986 344.512 219.538 344.96C219.122 345.408 218.386 345.632 217.33 345.632C217.074 345.632 216.818 345.52 216.562 345.296C216.306 345.072 215.986 344.736 215.602 344.288C215.09 343.616 214.594 343.168 214.114 342.944C213.634 342.784 212.93 342.608 212.002 342.416C211.106 342.224 210.306 342.128 209.602 342.128C208.834 342.128 208.034 342.288 207.202 342.608C206.37 342.928 205.666 343.392 205.09 344C204.546 344.576 204.274 345.248 204.274 346.016C204.274 346.656 204.562 347.216 205.138 347.696C205.746 348.144 206.466 348.512 207.298 348.8C208.258 349.184 209.298 349.52 210.418 349.808C211.89 350.256 213.09 350.672 214.018 351.056C214.978 351.408 215.906 351.856 216.802 352.4C218.37 353.328 219.506 354.288 220.21 355.28C220.914 356.24 221.266 357.584 221.266 359.312ZM258.011 340.064C258.011 341.984 257.947 344.672 257.819 348.128C257.787 348.96 257.755 349.968 257.723 351.152C257.691 352.304 257.675 353.648 257.675 355.184C257.675 360.208 257.947 363.808 258.491 365.984C258.459 366.784 258.155 367.36 257.579 367.712C257.003 368.032 256.411 368.192 255.803 368.192C254.555 368.192 253.723 367.744 253.307 366.848C252.923 365.92 252.731 364.624 252.731 362.96C252.731 356.784 252.827 351.072 253.019 345.824C252.411 347.04 251.835 348.384 251.291 349.856C250.779 351.296 250.091 353.312 249.227 355.904C248.331 358.72 247.563 360.944 246.923 362.576C246.315 364.208 245.675 365.472 245.003 366.368C244.811 366.464 244.427 366.656 243.851 366.944C243.307 367.2 242.827 367.328 242.411 367.328C241.739 367.328 241.259 367.216 240.971 366.992C240.683 366.768 240.427 366.448 240.203 366.032C239.979 365.616 239.787 365.28 239.627 365.024C239.115 364.256 238.459 362.992 237.659 361.232C236.859 359.472 236.123 357.632 235.451 355.712C235.195 355.04 234.955 354.4 234.731 353.792C234.539 353.152 234.347 352.56 234.155 352.016C233.771 350.864 233.387 349.792 233.003 348.8C232.651 347.776 232.347 347.056 232.091 346.64C232.091 348.336 232.043 350.032 231.947 351.728C231.883 353.776 231.851 355.248 231.851 356.144C231.851 356.784 231.883 357.648 231.947 358.736C232.139 362.064 232.235 364.256 232.235 365.312C232.235 366.08 232.043 366.736 231.659 367.28C231.275 367.824 230.683 368.096 229.883 368.096C229.019 368.096 228.315 367.936 227.771 367.616C227.259 367.264 226.987 366.752 226.955 366.08C226.987 365.536 227.003 364.656 227.003 363.44C227.003 360.976 226.907 357.056 226.715 351.68L226.667 349.952C226.667 348.736 226.731 347.008 226.859 344.768C226.891 344.224 226.923 343.584 226.955 342.848C226.987 342.112 227.003 341.312 227.003 340.448C227.003 339.456 227.339 338.736 228.011 338.288C228.683 337.808 229.547 337.568 230.603 337.568C231.243 337.568 231.883 337.728 232.523 338.048C233.195 338.368 233.691 338.832 234.011 339.44C234.651 340.752 235.291 342.304 235.931 344.096C236.571 345.856 237.435 348.368 238.523 351.632C239.547 354.736 240.363 357.104 240.971 358.736C241.579 360.336 242.091 361.424 242.507 362L243.611 358.736C247.227 347.696 249.659 341.168 250.907 339.152C251.195 338.768 251.691 338.432 252.395 338.144C253.131 337.824 253.819 337.664 254.459 337.664C254.939 337.664 255.643 337.968 256.571 338.576C257.531 339.152 258.011 339.648 258.011 340.064ZM287.274 367.28C286.858 366.736 286.506 366.144 286.218 365.504C285.93 364.832 285.626 364.032 285.306 363.104C285.242 362.944 285.05 362.464 284.73 361.664C284.442 360.864 284.106 360.176 283.722 359.6C281.706 359.888 280.058 360.032 278.778 360.032C278.074 360.032 277.29 360.016 276.426 359.984C275.594 359.92 274.97 359.888 274.554 359.888C272.954 359.76 271.674 359.696 270.714 359.696C270.33 360.208 269.994 360.752 269.706 361.328C269.45 361.904 269.114 362.768 268.698 363.92C268.122 365.584 267.626 366.768 267.21 367.472C266.922 367.952 266.362 368.192 265.53 368.192C264.826 368.192 264.17 368.048 263.562 367.76C262.986 367.44 262.698 367.008 262.698 366.464C262.954 365.248 263.354 363.968 263.898 362.624C264.474 361.248 265.29 359.424 266.346 357.152L268.266 352.448C269.322 349.76 270.282 347.456 271.146 345.536C272.042 343.616 273.21 341.344 274.65 338.72C274.842 338.336 275.162 338.016 275.61 337.76C276.058 337.472 276.554 337.328 277.098 337.328C277.706 337.328 278.138 337.376 278.394 337.472C278.682 337.536 278.906 337.664 279.066 337.856C279.226 338.016 279.466 338.368 279.786 338.912C280.874 340.608 281.802 342.352 282.57 344.144C283.37 345.936 284.378 348.416 285.594 351.584L286.602 354.128C287.498 356.432 288.266 358.368 288.906 359.936C289.578 361.472 290.314 362.88 291.114 364.16C291.626 364.992 291.882 365.568 291.882 365.888C291.882 366.656 291.642 367.248 291.162 367.664C290.714 368.048 290.122 368.24 289.386 368.24C288.458 368.24 287.754 367.92 287.274 367.28ZM282.33 355.664C281.818 354.576 281.082 352.688 280.122 350C279.13 347.12 278.138 344.832 277.146 343.136C276.538 344.672 275.642 346.656 274.458 349.088C273.658 350.592 272.746 352.768 271.722 355.616C273.77 355.872 275.978 356 278.346 356C280.042 356 281.37 355.888 282.33 355.664ZM312.217 355.28C315.001 360.016 317.609 363.776 320.041 366.56C320.297 366.816 320.425 367.104 320.425 367.424C320.425 367.84 320.169 368.192 319.657 368.48C319.145 368.8 318.553 368.96 317.881 368.96C316.889 368.96 315.817 368.544 314.665 367.712C313.833 367.136 313.065 366.288 312.361 365.168C311.657 364.016 310.857 362.544 309.961 360.752L309.145 359.12C308.313 357.616 307.817 356.736 307.657 356.48C306.953 356.768 306.137 356.976 305.209 357.104C304.281 357.232 303.145 357.344 301.801 357.44C301.865 361.536 301.897 364.4 301.897 366.032C301.897 366.64 301.673 367.136 301.225 367.52C300.777 367.872 300.217 368.048 299.545 368.048C298.713 368.048 298.073 367.712 297.625 367.04C297.177 366.144 296.953 364.752 296.953 362.864L297.001 359.36C297.001 357.184 297.049 355.12 297.145 353.168C297.209 350.608 297.241 348.72 297.241 347.504L297.289 345.056C297.289 344.32 297.241 343.568 297.145 342.8C296.633 342.64 296.185 342.4 295.801 342.08C295.417 341.728 295.225 341.344 295.225 340.928C295.225 340.128 295.513 339.52 296.089 339.104C296.697 338.656 297.449 338.368 298.345 338.24C300.937 337.824 303.465 337.616 305.929 337.616C310.121 337.616 313.593 338.4 316.345 339.968C319.097 341.536 320.473 343.92 320.473 347.12C320.473 348.112 320.249 349.072 319.801 350C319.385 350.896 318.809 351.648 318.073 352.256C316.153 353.76 314.201 354.768 312.217 355.28ZM315.385 346.976C315.385 345.44 314.569 344.192 312.937 343.232C311.337 342.24 309.033 341.744 306.025 341.744C304.713 341.744 303.369 341.904 301.993 342.224C302.057 343.376 302.089 344.192 302.089 344.672C302.089 345.632 302.025 347.008 301.897 348.8C301.833 350.592 301.801 352.032 301.801 353.12C303.945 353.12 305.993 352.832 307.945 352.256C309.353 351.84 310.537 351.44 311.497 351.056C312.457 350.672 313.337 350.144 314.137 349.472C314.969 348.768 315.385 347.936 315.385 346.976ZM322.739 340.016C322.739 338.64 323.747 337.952 325.763 337.952C326.627 337.952 328.275 337.984 330.707 338.048C333.395 338.176 335.427 338.24 336.803 338.24C337.923 338.24 339.283 338.176 340.883 338.048C341.971 337.984 342.659 337.952 342.947 337.952C344.707 338.016 346.195 338.336 347.411 338.912C347.763 339.072 348.051 339.264 348.275 339.488C348.499 339.712 348.611 340.08 348.611 340.592C348.611 341.296 348.387 341.904 347.939 342.416C347.491 342.896 346.947 343.136 346.307 343.136C345.603 343.136 344.579 343.04 343.235 342.848C342.051 342.624 341.011 342.512 340.115 342.512C339.251 342.512 338.595 342.528 338.147 342.56C338.051 343.616 338.003 346.144 338.003 350.144C338.003 354.912 338.147 359.744 338.435 364.64L338.531 366.032C338.531 367.344 337.779 368 336.275 368C335.091 368 334.291 367.728 333.875 367.184C333.459 366.608 333.251 365.744 333.251 364.592C333.251 362.32 333.187 359.488 333.059 356.096C332.931 353.28 332.867 351.28 332.867 350.096C332.867 349.296 332.963 346.848 333.155 342.752L327.539 342.8C325.747 342.8 324.499 342.64 323.795 342.32C323.091 341.968 322.739 341.2 322.739 340.016ZM366.138 368.144C365.178 368.144 364.506 367.856 364.122 367.28C363.77 366.704 363.594 365.888 363.594 364.832L363.642 358.592L363.594 357.632C363.434 354.592 363.354 352.08 363.354 350.096L363.546 344.384L363.594 341.504C363.594 340.544 363.626 339.808 363.69 339.296C363.754 338.784 363.962 338.368 364.314 338.048C364.666 337.728 365.226 337.568 365.994 337.568C366.954 337.568 367.642 337.808 368.058 338.288C368.474 338.736 368.682 339.52 368.682 340.64L368.634 341.648C368.506 344.208 368.442 346.144 368.442 347.456C368.442 348.896 368.474 350.592 368.538 352.544C368.602 354.464 368.65 355.824 368.682 356.624C368.842 360.048 368.922 362.992 368.922 365.456C368.922 366.416 368.714 367.104 368.298 367.52C367.914 367.936 367.194 368.144 366.138 368.144ZM376.255 365.744C376.255 364.688 376.319 363.52 376.447 362.24C376.575 360.768 376.639 358.912 376.639 356.672C376.639 352.576 376.463 348.624 376.111 344.816C375.919 342.448 375.823 340.768 375.823 339.776C375.823 339.104 376.159 338.544 376.831 338.096C377.503 337.616 378.191 337.376 378.895 337.376C379.343 337.376 379.887 337.408 380.527 337.472C381.167 337.536 381.631 337.568 381.919 337.568C389.119 337.568 394.415 339.504 397.807 343.376C399.951 345.872 401.023 349.184 401.023 353.312C401.023 355.04 400.703 356.784 400.063 358.544C399.455 360.272 398.575 361.68 397.423 362.768C396.175 363.984 394.991 364.96 393.871 365.696C392.783 366.4 391.295 366.992 389.407 367.472C387.551 367.952 385.167 368.192 382.255 368.192C380.399 368.192 378.927 367.984 377.839 367.568C376.783 367.152 376.255 366.544 376.255 365.744ZM384.079 363.824C386.223 363.824 388.191 363.44 389.983 362.672C391.775 361.872 393.215 360.688 394.303 359.12C395.391 357.52 395.935 355.568 395.935 353.264C395.935 350.992 395.615 349.104 394.975 347.6C394.335 346.064 393.231 344.816 391.663 343.856C390.479 343.12 389.023 342.592 387.295 342.272C385.567 341.92 383.487 341.744 381.055 341.744C381.055 342.064 381.087 342.8 381.151 343.952C381.215 345.04 381.247 345.952 381.247 346.688L381.295 347.744C381.487 351.072 381.583 353.712 381.583 355.664C381.583 358.736 381.407 361.392 381.055 363.632C381.823 363.76 382.831 363.824 384.079 363.824Z" fill="white"/>
<path d="M161 255C205.183 255 241 219.183 241 175C241 130.817 205.183 95 161 95C116.817 95 81 130.817 81 175C81 219.183 116.817 255 161 255Z" fill="white"/>
<g opacity="0.5">
<path d="M161 133.667C166.481 133.667 171.738 135.844 175.614 139.72C179.489 143.596 181.667 148.852 181.667 154.333C181.667 159.814 179.489 165.071 175.614 168.947C171.738 172.823 166.481 175 161 175C155.519 175 150.262 172.823 146.386 168.947C142.511 165.071 140.333 159.814 140.333 154.333C140.333 148.852 142.511 143.596 146.386 139.72C150.262 135.844 155.519 133.667 161 133.667ZM161 185.333C183.837 185.333 202.333 194.582 202.333 206V216.333H119.667V206C119.667 194.582 138.163 185.333 161 185.333Z" fill="black"/>
</g>
<path d="M495 95H363C349.745 95 339 105.745 339 119V231C339 244.255 349.745 255 363 255H495C508.255 255 519 244.255 519 231V119C519 105.745 508.255 95 495 95Z" fill="white"/>
<path d="M380.031 126.031V161.281H388.844V170.094H397.656V161.281H415.281V126.031H380.031ZM415.281 161.281V170.094H424.094V178.906H406.469V187.719H380.031V222.969H415.281V187.719H441.719V178.906H432.906V170.094H450.531V161.281H459.344V170.094H468.156V161.281H476.969V126.031H441.719V161.281H415.281ZM468.156 170.094V178.906H476.969V170.094H468.156ZM468.156 178.906H459.344V187.719H468.156V178.906ZM468.156 187.719V196.531H476.969V187.719H468.156ZM468.156 196.531H459.344V187.719H450.531V196.531H428.5V222.969H437.312V205.344H454.938V214.156H463.75V205.344H468.156V196.531ZM454.938 214.156H446.125V222.969H454.938V214.156ZM459.344 178.906V170.094H450.531V178.906H459.344ZM406.469 178.906V170.094H397.656V178.906H406.469ZM388.844 170.094H380.031V178.906H388.844V170.094ZM424.094 126.031V143.656H419.688V152.469H424.094V156.875H432.906V143.656H437.312V134.844H432.906V126.031H424.094ZM388.844 134.844H406.469V152.469H388.844V134.844ZM450.531 134.844H468.156V152.469H450.531V134.844ZM393.25 139.25V148.062H402.062V139.25H393.25ZM454.938 139.25V148.062H463.75V139.25H454.938ZM388.844 196.531H406.469V214.156H388.844V196.531ZM393.25 200.938V209.75H402.062V200.938H393.25ZM468.156 214.156V222.969H476.969V214.156H468.156Z" fill="#7F7F7F"/>
</g>
<defs>
<clipPath id="clip0_2_2">
<rect width="600" height="400" fill="white"/>
</clipPath>
</defs>
</svg>
